<svg
  height="16"
  viewBox="0 0 24 16"
  width="24"
  xmlns="http://www.w3.org/2000/svg"
>
    <path fill="#cccccc" opacity=".2" d="M 21.845 0.049 C 22.943 0.052 23.915 1.09 23.923 2.113 C 23.932 3.157 23.908 10.87 23.908 11.52 C 23.908 12.444 21.749 11.978 21.751 11.03 C 21.752 10.444 21.326 10.066 20.613 10.076 L 3.315 10.087 C 2.716 10.087 2.231 10.532 2.231 11.08 L 2.231 12.073 C 2.231 12.621 2.716 13.066 3.315 13.066 L 20.666 13.066 C 21.265 13.066 21.751 12.621 21.751 12.073 L 21.756 11.049 C 21.746 10.485 23.193 11.92 23.492 11.529 C 23.718 11.233 23.211 11.615 23.92 11.525 L 23.92 13.951 C 23.92 15.048 22.949 15.937 21.751 15.937 L 2.231 15.937 C 1.032 15.937 0.062 15.048 0.062 13.951 L 0.062 2.035 C 0.062 0.938 1.032 0.049 2.231 0.049 L 21.845 0.049 Z" style=""></path>
    <path fill="#cccccc" opacity=".5" d="M 23.899 3.268 C 23.899 3.635 23.9 6.253 23.871 6.256 L 0.078 6.268 L 0.078 3.268 L 23.899 3.268 Z" style=""></path>
</svg>