<svg
  width="24"
  height="16"
  viewBox="0 0 24 16"
  xmlns="http://www.w3.org/2000/svg"
>
  <path fill="#df1b41" opacity=".2" d="M 21.845 0.049 C 22.943 0.052 23.915 1.09 23.923 2.113 C 23.932 3.157 23.908 10.87 23.908 11.52 C 23.908 12.444 21.749 11.978 21.751 11.03 C 21.752 10.444 21.326 10.066 20.613 10.076 L 3.315 10.087 C 2.716 10.087 2.231 10.532 2.231 11.08 L 2.231 12.073 C 2.231 12.621 2.716 13.066 3.315 13.066 L 20.666 13.066 C 21.265 13.066 21.751 12.621 21.751 12.073 L 21.756 11.049 C 21.746 10.485 23.193 11.92 23.492 11.529 C 23.718 11.233 23.211 11.615 23.92 11.525 L 23.92 13.951 C 23.92 15.048 22.949 15.937 21.751 15.937 L 2.231 15.937 C 1.032 15.937 0.062 15.048 0.062 13.951 L 0.062 2.035 C 0.062 0.938 1.032 0.049 2.231 0.049 L 21.845 0.049 Z" style=""></path>
  <path fill="#df1b41" opacity=".5" d="M 17.906 3.268 C 17.906 3.635 17.907 6.253 17.885 6.256 L 0.078 6.268 L 0.078 3.268 L 17.906 3.268 Z" style=""></path>
  <path fill="#df1b41" d="M 18.892 9.186 C 15.624 9.186 13.581 5.648 15.215 2.818 C 15.974 1.504 17.375 0.695 18.892 0.695 C 22.16 0.695 24.203 4.233 22.569 7.063 C 21.81 8.377 20.409 9.186 18.892 9.186 Z M 18.892 7.859 C 19.504 7.859 19.887 7.196 19.581 6.666 C 19.439 6.42 19.176 6.268 18.892 6.268 C 18.279 6.268 17.896 6.931 18.203 7.462 C 18.345 7.708 18.607 7.859 18.892 7.859 Z M 18.892 1.756 C 18.598 1.756 18.36 1.994 18.361 2.287 L 18.361 4.941 C 18.361 5.349 18.803 5.604 19.157 5.4 C 19.321 5.306 19.423 5.13 19.423 4.941 L 19.423 2.287 C 19.423 1.994 19.185 1.756 18.892 1.756 Z" style=""></path>
  <path fill="#df1b41" opacity=".5" d="M 23.933 3.269 C 23.933 3.636 23.934 6.254 23.912 6.257 L 19.878 6.269 L 19.878 3.269 L 23.933 3.269 Z" style=""></path>
</svg>